<?xml version="1.0" encoding="utf-8"?>
<!-- Generator: Adobe Illustrator 25.2.3, SVG Export Plug-In . SVG Version: 6.00 Build 0)  -->
<svg version="1.1" id="Layer_2_1_" xmlns="http://www.w3.org/2000/svg" xmlns:xlink="http://www.w3.org/1999/xlink" x="0px" y="0px"
	 viewBox="0 0 26.6 32" style="enable-background:new 0 0 26.6 32;" xml:space="preserve">
<path d="M16.1,18.8L16.1,18.8c-0.5,0-0.9-0.4-0.9-0.9c0-0.5,0.4-0.9,0.9-0.9c0.5,0,0.9,0.4,0.9,0.9C17,18.4,16.6,18.8,16.1,18.8
	C16.1,18.8,16.1,18.8,16.1,18.8L16.1,18.8z"/>
<path d="M10.5,15.1L10.5,15.1c-0.5,0-0.9-0.4-0.9-0.9c0-0.5,0.4-0.9,0.9-0.9c0.5,0,0.9,0.4,0.9,0.9C11.4,14.7,11,15.1,10.5,15.1
	C10.5,15.1,10.5,15.1,10.5,15.1z"/>
<path d="M3.1,10.4l4.4,8.9l0,0l4.9,10.2c0.2,0.3,0.5,0.5,0.9,0.5l0,0c0.4,0,0.7-0.2,0.8-0.5l9.3-19.1c1.8-0.2,3.1-1.8,2.8-3.6
	C26.1,5.4,25.2,4.4,24,4c-0.9-0.2-1.5-0.5-2.1-0.7s-1.1-0.4-1.8-0.6c-2.2-0.5-4.5-0.8-6.8-0.7C8,2,6.5,2.6,4.7,3.3
	C4.1,3.5,3.4,3.8,2.6,4C0.9,4.5-0.1,6.3,0.4,8C0.7,9.3,1.8,10.2,3.1,10.4L3.1,10.4z M3.1,5.8C4,5.5,4.7,5.2,5.4,5
	c1.7-0.6,3-1.1,7.9-1.1c2.1-0.1,4.2,0.1,6.3,0.6c0.6,0.2,1.1,0.3,1.7,0.6s1.3,0.5,2.2,0.8c0.6,0.2,1,0.7,1,1.3c0,0.4-0.2,0.7-0.5,1
	c-0.3,0.3-0.7,0.4-1.1,0.4l0,0c-0.1,0-0.1,0-0.2,0h-0.2c-0.1,0-0.1,0-0.2,0.1c-0.1,0-0.2,0.1-0.3,0.2c0,0-0.1,0.1-0.1,0.1l0,0
	l-8.8,18l-3.8-7.8c0.3-0.2,0.6-0.3,1-0.3h0.1c1,0.1,1.7,0.9,1.7,1.9c0,0.4-0.1,0.8-0.3,1.1c-0.3,0.4-0.2,1,0.2,1.3s1,0.2,1.3-0.2
	c1.2-1.7,0.8-4-0.9-5.2c-0.6-0.4-1.2-0.6-1.9-0.7h-0.2c-0.6,0-1.3,0.2-1.8,0.5L5,10l0.8-0.3c0.3-0.1,0.6-0.2,0.9-0.4l0,0
	c0,1.5,1.3,2.8,2.8,2.8s2.8-1.3,2.8-2.8c0-0.3,0-0.5-0.1-0.7h1c2.1-0.1,4.2,0.1,6.3,0.6c0.5,0.1,1-0.1,1.2-0.6
	c0.1-0.5-0.1-1-0.6-1.2c-2.2-0.5-4.5-0.7-6.8-0.6C8.1,6.8,6.6,7.4,5.1,8C4.8,8.2,4.4,8.3,3.9,8.5H3.7H3.5c-0.8,0-1.4-0.6-1.4-1.4
	C2.1,6.4,2.5,5.9,3.1,5.8L3.1,5.8z M10.2,8.8c0.2,0.2,0.3,0.4,0.3,0.6c0,0.5-0.4,0.9-0.9,0.9c-0.5,0-0.9-0.4-0.9-0.9l0,0
	c0-0.2,0.1-0.3,0.1-0.4C9.2,8.9,9.6,8.8,10.2,8.8L10.2,8.8z"/>
<path d="M16.1,10.4c-1.5,0-2.8,1.3-2.8,2.8s1.3,2.8,2.8,2.8c1.5,0,2.8-1.3,2.8-2.8l0,0C18.9,11.6,17.6,10.4,16.1,10.4z M16.1,14.1
	c-0.5,0-0.9-0.4-0.9-0.9s0.4-0.9,0.9-0.9c0.5,0,0.9,0.4,0.9,0.9C17,13.7,16.6,14.1,16.1,14.1C16.1,14.1,16.1,14.1,16.1,14.1
	L16.1,14.1z"/>
</svg>
