<?xml version="1.0" encoding="utf-8"?>
<!-- Generator: Adobe Illustrator 25.2.3, SVG Export Plug-In . SVG Version: 6.00 Build 0)  -->
<svg version="1.1" id="Icons" xmlns="http://www.w3.org/2000/svg" xmlns:xlink="http://www.w3.org/1999/xlink" x="0px" y="0px"
	 viewBox="0 0 28.3 28.3" style="enable-background:new 0 0 28.3 28.3;" xml:space="preserve">
<style type="text/css">
	.st0{fill:none;stroke:#000000;stroke-width:2;stroke-linecap:round;stroke-linejoin:round;stroke-miterlimit:10;}
</style>
<path class="st0" d="M25.8,8c-2.6-1.2-6.3-1.9-10.4-1.9c-7.9,0-14.3,2.7-14.3,6c0,2.2,1.4,4.5,4.8,5.5c2.1,0.6,4.4,0.5,6.4-0.2l0,0
	c2.2-0.7,4.1-2,5.9-3.4c1.4-1.1,3.2-1.8,5.1-1.8h1.3C27.2,12.1,28,9,25.8,8z"/>
<ellipse class="st0" cx="9.6" cy="12.1" rx="3.5" ry="2"/>
<path class="st0" d="M27.1,10.1v5l0,0c-0.1,1-1,2-2.4,2h-1.3c-1.9,0-3.8,0.7-5.1,1.8c-1.8,1.5-3.7,2.7-5.9,3.4l0,0
	C10.3,23,8.1,23.1,6,22.5c-3.5-0.9-4.9-3.2-4.9-5.4v-5"/>
</svg>
