<?xml version="1.0" encoding="utf-8"?>
<!-- Generator: Adobe Illustrator 25.2.3, SVG Export Plug-In . SVG Version: 6.00 Build 0)  -->
<svg version="1.1" id="Layer_1" xmlns="http://www.w3.org/2000/svg" xmlns:xlink="http://www.w3.org/1999/xlink" x="0px" y="0px"
	 viewBox="0 0 410.3 507.6" style="enable-background:new 0 0 410.3 507.6;" xml:space="preserve">
<g id="Capa_2">
	<g id="Outline">
		<g id="SaladBowl">
			<path d="M0,302.4c0,113.1,92,205.1,205.1,205.1c113.2,0.1,205.1-91.6,205.1-204.9c0-0.1,0-0.2,0-0.3c0-4.7-3.8-8.5-8.5-8.5H8.5
				C3.8,293.9,0,297.7,0,302.4z M393.1,310.9c-0.6,12.8-2.4,25.4-5.6,37.8H22.8c-3.2-12.4-5-25-5.6-37.8H393.1z M24.7,355.7h360.9
				c-23.6,80-97.1,134.9-180.5,134.8C119.9,490.6,47.7,433.6,24.7,355.7z"/>
			<path d="M264.3,452.9c19.2-8.3,36.2-20.8,49.9-36.6c1.3-1.5,3.5-1.6,4.9-0.4s1.6,3.5,0.4,4.9l0,0c-14.3,16.6-32.3,29.8-52.5,38.5
				c-0.4,0.2-0.9,0.3-1.4,0.3c-1.9,0-3.5-1.6-3.5-3.5C262.1,454.7,262.9,453.4,264.3,452.9L264.3,452.9z"/>
			<path d="M378.4,110.2c16.5-17.4,12.2-43,12-44c-0.8-4.6-5.2-7.7-9.8-6.9c-1.5,0.3-2.9,0.9-4.1,1.9l-37.3,32l11.3-56.1
				c0.9-4.6-2-9.1-6.7-10c-1.6-0.3-3.3-0.2-4.8,0.4c-1.1,0.4-27.6,11-35,36.3c-3.4,11.5-2.2,23.9,3.4,37c-7.3-1.1-14.7-0.6-21.8,1.6
				c-12.3,4-21.7,13.2-27.9,27.4c-1.9,4.4-3.5,9-4.9,13.7c0,0.1-0.1,0.2-0.1,0.3c-9.4,31.9-14.7,85.5-13.7,113.7
				c0.3,9.5,6,17.9,14.7,21.7c3.1,1.4,6.6,2.1,10,2.1c5.8,0,11.5-2.1,15.9-5.9c12.9-10.9,30.6-29.3,46.3-48
				c12.1-14.5,22.1-28,28.8-39.1l0,0c2.5-4.1,4.7-8.3,6.7-12.6c6.3-14.2,6.8-27.3,1.5-39.1c-2.2-4.9-5.3-9.3-9.1-13.2
				C363.9,121.2,372.1,116.8,378.4,110.2z M321.8,123.2L321.8,123.2l0.3,0.1l0.3,0.2l0.3,0.1h0.1l0.2,0.1l0.3,0.1l0.2,0.1
				c0.3,0.1,18,6.1,24.1,19.7c3.2,7.3,2.7,15.5-1.5,25.2c-1.2,2.7-2.6,5.4-4.1,8l-14.1-7.6c-1.7-1-3.8-0.4-4.8,1.3
				c-1,1.7-0.4,3.8,1.3,4.8c0.1,0,0.1,0.1,0.2,0.1l13.8,7.4c-7.4,11.4-15.6,22.3-24.3,32.6l-27.2-12.5c-1.8-0.8-3.8,0-4.6,1.7
				c-0.8,1.8,0,3.8,1.7,4.6l25.5,11.8c-14,16.4-29.2,31.9-40.4,41.4c-3.2,2.7-8.1,2.4-10.8-0.9c-1.1-1.3-1.8-3-1.8-4.7
				c-0.9-25.6,3.7-73.1,11.8-103.8l27.1,12.2c0.4,0.2,0.9,0.3,1.4,0.3c1.9,0,3.5-1.6,3.5-3.5c0-1.4-0.8-2.6-2.1-3.2l-28.1-12.6
				c1-3.2,2.1-6.4,3.5-9.5c4.3-9.7,10-15.6,17.6-18.1C305.3,113.9,321.6,123,321.8,123.2L321.8,123.2z M329.9,53.6l-7.7,38.1
				c-3.2-8.4-3.8-16.1-1.8-23.1C322.2,62.9,325.4,57.7,329.9,53.6L329.9,53.6z M372.4,87.1c-1.2,4.3-3.4,8.2-6.4,11.4
				c-4,4.2-9.6,7-16.7,8.4L372.4,87.1z"/>
			<path d="M153.9,151.6c-12.6-31-41.1-51.4-70.1-51.4H83c-0.1-0.2-0.2-0.5-0.3-0.7c-5.7-14-23-20.2-38.5-13.9
				c-7.2,2.8-13.1,8.1-16.7,14.9c-3.6,6.7-4.1,14.7-1.3,21.8c1.2,2.9,2.9,5.5,5,7.8C18.8,150.6,17,178.3,27,203
				c12.6,31,40.7,51.4,69.9,51.4c4.5,7.5,13.1,11.8,22.3,11.8c3.9,0,7.8-0.8,11.4-2.2c14.3-5.8,21.6-21,16.4-33.8
				c-0.1-0.4-0.3-0.7-0.5-1.1C161.9,208.3,164.9,178.6,153.9,151.6z M129.7,222.9c-3,3.3-2.9,8.5,0.2,11.7c0.6,0.6,1,1.3,1.3,2
				c1.7,4.1-1.6,9.5-7,11.7s-11.6,0.6-13.2-3.5c-0.1-0.3-0.2-0.6-0.3-0.9c-0.9-4.2-4.9-7-9.2-6.6c-24,2.4-48.1-14.3-58.8-40.6
				c-9-22.2-6.3-46.9,6.9-63.1c3-3.6,2.4-9-1.2-12c-0.5-0.4-1.1-0.8-1.8-1.1c-2.1-0.9-3.7-2.5-4.6-4.6c-0.9-2.5-0.7-5.3,0.6-7.7
				c1.7-3.2,4.5-5.7,7.9-7c6.7-2.7,14.2-0.7,16.3,4.5c0.4,1,0.6,2.1,0.6,3.2c-0.1,4.7,3.6,8.6,8.3,8.7c0.5,0,1,0,1.5-0.1
				c2.2-0.3,4.4-0.5,6.7-0.5c22.2,0,44.3,16.2,54.2,40.8C147.6,181.3,144.3,206.8,129.7,222.9z"/>
			<path d="M119,211.8c-0.5,0.2-1,0.4-1.5,0.4c-1.9,0-3.5-1.6-3.5-3.5c0-1.3,0.8-2.5,2-3.1c9.9-4.9,13.9-16.8,9.1-26.7
				c-0.8-1.7-0.1-3.8,1.7-4.7c1.7-0.8,3.8-0.1,4.6,1.6C137.8,189.2,132.3,205.3,119,211.8C118.9,211.8,118.9,211.8,119,211.8
				L119,211.8z"/>
			<path d="M197.1,264.7c0,8.9,7.2,16.2,16.1,16.2s16.2-7.2,16.2-16.1s-7.2-16.2-16.1-16.2c0,0,0,0,0,0
				C204.4,248.6,197.1,255.8,197.1,264.7z M204.1,264.7c0-5.1,4.1-9.2,9.1-9.2s9.2,4.1,9.2,9.2s-4.1,9.1-9.2,9.1c0,0,0,0,0,0
				C208.2,273.9,204.1,269.8,204.1,264.7z"/>
			<path d="M131.9,59c0-10.4-8.4-18.9-18.9-18.9c-10.4,0-18.9,8.4-18.9,18.9c0,10.4,8.4,18.8,18.8,18.9
				C123.4,77.9,131.9,69.4,131.9,59z M124.9,59c0,6.6-5.3,11.9-11.9,11.9s-11.9-5.3-11.9-11.9c0-6.5,5.3-11.9,11.8-11.9
				C119.6,47.1,124.9,52.4,124.9,59z"/>
			<path d="M404.3,215.1c0-11.2-9.1-20.3-20.3-20.3c-11.2,0-20.3,9.1-20.3,20.3c0,11.2,9.1,20.3,20.3,20.3c0,0,0,0,0,0
				C395.2,235.4,404.3,226.3,404.3,215.1z M397.3,215.1c0,7.4-6,13.3-13.3,13.3c-7.4,0-13.3-6-13.3-13.3c0-7.4,6-13.3,13.3-13.3
				c0,0,0,0,0,0C391.4,201.7,397.3,207.7,397.3,215.1z"/>
			<path d="M25.5,257.8c0,6.3,5.1,11.3,11.3,11.3s11.3-5.1,11.3-11.3c0-6.3-5.1-11.3-11.3-11.3c0,0,0,0,0,0
				C30.5,246.5,25.5,251.5,25.5,257.8z M32.5,257.8c0-2.4,1.9-4.3,4.3-4.3c2.4,0,4.3,1.9,4.3,4.3c0,2.4-1.9,4.3-4.3,4.3c0,0,0,0,0,0
				C34.4,262.1,32.5,260.2,32.5,257.8z"/>
			<path d="M283.4,32.8c0-6.3-5.1-11.3-11.3-11.3c-6.3,0-11.3,5.1-11.3,11.3s5.1,11.3,11.3,11.3c0,0,0,0,0,0
				C278.3,44.1,283.4,39.1,283.4,32.8z M276.4,32.8c0,2.4-1.9,4.3-4.3,4.3c-2.4,0-4.3-1.9-4.3-4.3s1.9-4.3,4.3-4.3c0,0,0,0,0,0
				C274.4,28.5,276.4,30.4,276.4,32.8z"/>
			<path d="M215.6,156.2c15.4-20.3,32.2-51.6,24.4-84.9c-6.5-27.8-28.9-51.5-66.6-70.4c-4.2-2.1-9.3-0.4-11.4,3.8
				c0,0.1-0.1,0.1-0.1,0.2c-11,23.4-20.7,46.5-18,72.2c3.1,29.4,22.3,56.4,58.8,82.5c0.7,0.5,1.5,0.9,2.3,1.1
				c-1.2,18.6-4.9,34.5-10.8,46.4c-0.9,1.7-0.1,3.8,1.6,4.7c0,0,0,0,0,0c0.5,0.2,1,0.4,1.6,0.4c1.3,0,2.5-0.8,3.1-1.9
				c6.4-13,10.3-30.2,11.6-50.3c0.9-0.5,1.7-1.2,2.3-2.1C214.8,157.4,215.2,156.8,215.6,156.2L215.6,156.2z M211.9,131.3
				c-1.6-24.3-6.7-48.3-14.4-65.7c-0.7-1.8-2.8-2.6-4.6-1.9c-1.8,0.7-2.6,2.8-1.9,4.6c0,0,0,0.1,0.1,0.1c8.3,18.8,13.5,45.7,14.2,72
				c-27.6-21.4-42.2-42.7-44.5-65.1c-1.9-18.6,4.5-36.7,12.8-55.1c28.3,15.7,45.1,34.1,49.9,55C228.2,95.3,221.2,115.2,211.9,131.3
				L211.9,131.3z"/>
		</g>
	</g>
</g>
</svg>
